# xmcd CD database file
#
# Track frame offsets:
#	150
#	14545
#	31362
#	51208
#	64970
#	82123
#	100243
#	117881
#	134559
#	151881
#	167318
#	182481
#	194471
#	209513
#	224355
#	240973
#	254953
#	271620
#
# Disc length: 3898 seconds
#
# Revision: 0
# Processed by: cddbd v1.5.2PL0 Copyright (c) Steve Scherf et al.
# Submitted via: CDex 1.51
#
DISCID=030f3812
DTITLE=Shania Twain - Send It ... With Love
DYEAR=2008
DGENRE=Country
TTITLE0=Wild And Wicked
TTITLE1=Two Hearts One Love
TTITLE2=Lost My Heart
TTITLE3=Bite My Lip
TTITLE4=Once Over
TTITLE5=Hate To Love
TTITLE6=Send It With Love
TTITLE7=Luv Eyes
TTITLE8=Rythm Made Me Do it
TTITLE9=Half Breed
TTITLE10=Its Alright
TTITLE11=Love
TTITLE12=I Aint Gonna Eat Out My Heart Anymore
TTITLE13=All Fired Up, No Place To Go
TTITLE14=The Heart Is Blind
TTITLE15=For The Love Of Him
TTITLE16=Its Alright (Club Mix)
TTITLE17=For The Love Of Him (Dance Mix)
EXTD=YEAR: 2008
EXTT0=
EXTT1=
EXTT2=
EXTT3=
EXTT4=
EXTT5=
EXTT6=
EXTT7=
EXTT8=
EXTT9=
EXTT10=
EXTT11=
EXTT12=
EXTT13=
EXTT14=
EXTT15=
EXTT16=
EXTT17=
PLAYORDER=
